<?xml version="1.0" encoding="UTF-8" standalone="no"?>
<!-- Created with Inkscape (http://www.inkscape.org/) -->

<svg
   xmlns:dc="http://purl.org/dc/elements/1.1/"
   xmlns:cc="http://creativecommons.org/ns#"
   xmlns:rdf="http://www.w3.org/1999/02/22-rdf-syntax-ns#"
   xmlns:svg="http://www.w3.org/2000/svg"
   xmlns="http://www.w3.org/2000/svg"
   xmlns:sodipodi="http://sodipodi.sourceforge.net/DTD/sodipodi-0.dtd"
   xmlns:inkscape="http://www.inkscape.org/namespaces/inkscape"
   width="200"
   height="40"
   viewBox="0 0 744.09449 1052.3622"
   id="svg2"
   version="1.1"
   inkscape:version="0.91 r13725"
   sodipodi:docname="logo.svg">
  <defs
     id="defs4" />
  <sodipodi:namedview
     id="base"
     pagecolor="#ffffff"
     bordercolor="#666666"
     borderopacity="1.0"
     inkscape:pageopacity="0.0"
     inkscape:pageshadow="2"
     inkscape:zoom="21.355853"
     inkscape:cx="135.97765"
     inkscape:cy="7.681823"
     inkscape:document-units="px"
     inkscape:current-layer="layer1"
     showgrid="false"
     inkscape:window-width="3200"
     inkscape:window-height="1664"
     inkscape:window-x="0"
     inkscape:window-y="64"
     inkscape:window-maximized="1" />
  <metadata
     id="metadata7">
    <rdf:RDF>
      <cc:Work
         rdf:about="">
        <dc:format>image/svg+xml</dc:format>
        <dc:type
           rdf:resource="http://purl.org/dc/dcmitype/StillImage" />
        <dc:title />
      </cc:Work>
    </rdf:RDF>
  </metadata>
  <g
     inkscape:label="Layer 1"
     inkscape:groupmode="layer"
     id="layer1">
    <g
       id="g3371"
       transform="translate(0,-473.56298)">
      <path
         d="m -2187.8171,1301.2342 c 175.0341,83.1663 382.58,134.9645 522.6061,86.5038 89.3749,-30.9311 227.824,-166.8626 283.8807,-267.1746 29.3602,-52.6036 64.837,-123.55735 88.0805,-168.82094 -2.4467,61.16704 2.4467,137.01414 2.4467,190.84114 0,118.664 -24.4668,151.6942 -63.6137,151.6942 -17.1268,0 -26.9135,-4.8934 -37.9236,-17.1268 l -107.6539,67.2837 c 57.497,73.4004 167.5976,83.1872 206.7445,83.1872 205.5212,0 325.40853,-146.8009 414.71238,-307.0585 -9.78672,-23.2434 -42.81691,-46.4869 -68.50706,-48.9336 -55.05032,95.4206 -105.20732,161.4809 -170.04432,212.8612 3.67,-14.68 6.1167,-35.4768 6.1167,-63.6137 0,-94.1972 -28.1368,-263.01814 4.8934,-444.07252 l -168.821,-42.81691 c -41.5936,88.08051 -105.8532,228.41691 -174.9377,346.04163 -68.7872,117.1187 -151.5732,204.802 -247.7558,261.5865 -82.7523,48.8555 -251.0926,52.693 -490.2239,-40.3818 z"
         style="font-style:normal;font-variant:normal;font-weight:bold;font-stretch:normal;font-size:90px;font-family:'Thirsty Script Extrabold Demo';-inkscape-font-specification:'Thirsty Script Extrabold Demo Bold';letter-spacing:0px;word-spacing:0px;fill:#000000;fill-opacity:1;stroke:none;stroke-width:1px;stroke-linecap:butt;stroke-linejoin:miter;stroke-opacity:1"
         id="path3349"
         inkscape:connector-curvature="0"
         sodipodi:nodetypes="csccssccscccsccssc" />
      <path
         d="m -558.80599,1071.6298 c -88.08051,149.2475 -171.26765,236.1047 -231.21133,236.1047 -26.91349,0 -53.82698,-17.1268 3.67002,-156.5876 l 150.47087,-374.34212 96.64389,0 40.37023,-97.86723 -97.86723,0 58.72034,-144.35417 -194.51113,0 -58.72033,144.35417 -100.31392,0 -40.37023,97.86723 101.53725,0 -138.23746,341.31192 c -88.08048,218.978 -12.2334,309.5052 108.87729,309.5052 154.14089,0 278.92161,-148.0242 369.4488,-307.0585 -9.78672,-23.2434 -42.81691,-46.4869 -68.50706,-48.9336 z"
         style="font-style:normal;font-variant:normal;font-weight:bold;font-stretch:normal;font-size:90px;font-family:'Thirsty Script Extrabold Demo';-inkscape-font-specification:'Thirsty Script Extrabold Demo Bold';letter-spacing:0px;word-spacing:0px;fill:#000000;fill-opacity:1;stroke:none;stroke-width:1px;stroke-linecap:butt;stroke-linejoin:miter;stroke-opacity:1"
         id="path3351"
         inkscape:connector-curvature="0" />
      <path
         d="m 143.83112,1071.6298 c -88.080511,151.6942 -165.150956,236.1047 -216.531252,236.1047 -24.466808,0 -45.263598,-20.7968 9.786723,-156.5876 l 150.470868,-374.34212 -194.511119,0 -130.89742,324.18522 c -73.40043,123.5574 -121.1107,189.6177 -168.82098,189.6177 -24.46681,0 -41.59357,-17.1267 8.56338,-139.4608 l 150.47087,-374.34212 -194.51112,0 -138.23746,341.31192 c -89.30385,221.4247 -9.78673,309.5052 100.31391,309.5052 78.29378,0 141.90748,-44.0403 198.18114,-110.1007 13.45675,77.0705 70.95374,110.1007 138.23747,110.1007 139.4607998,0 263.01818,-143.1309 355.99205,-307.0585 -9.78672,-23.2434 -42.81691,-46.4869 -68.50706,-48.9336 z"
         style="font-style:normal;font-variant:normal;font-weight:bold;font-stretch:normal;font-size:90px;font-family:'Thirsty Script Extrabold Demo';-inkscape-font-specification:'Thirsty Script Extrabold Demo Bold';letter-spacing:0px;word-spacing:0px;fill:#000000;fill-opacity:1;stroke:none;stroke-width:1px;stroke-linecap:butt;stroke-linejoin:miter;stroke-opacity:1"
         id="path3353"
         inkscape:connector-curvature="0" />
      <path
         d="m 933.40899,1176.3262 c -140.42874,102.4135 -233.91383,131.4083 -282.84745,131.4083 -20.79678,0 -44.04025,-17.1268 12.23341,-156.5876 l 249.56144,-616.56352 -194.51113,0 -132.12076,325.40855 c 0,0 -28.13683,-99.09057 -144.35416,-99.09057 -223.8713,0 -340.08863,371.89544 -340.08863,507.68624 0,84.4105 46.48693,159.0343 138.23746,159.0343 108.8773,0 193.28778,-101.5373 193.28778,-101.5373 0,0 15.90343,101.5373 144.35417,101.5373 148.02419,0 246.95029,-50.5766 399.86811,-162.8864 -9.78673,-23.2435 -17.9301,-85.9626 -43.62024,-88.4093 z m -602.13929,95.9314 c -24.46681,0 -39.14689,-13.4567 -39.14689,-45.2636 0,-78.2937 90.52719,-307.05839 187.17108,-307.05839 53.82697,0 55.05032,68.50706 55.05032,68.50706 l -79.51713,195.73443 c 0,0 -55.05032,88.0805 -123.55738,88.0805 z"
         style="font-style:normal;font-variant:normal;font-weight:bold;font-stretch:normal;font-size:90px;font-family:'Thirsty Script Extrabold Demo';-inkscape-font-specification:'Thirsty Script Extrabold Demo Bold';letter-spacing:0px;word-spacing:0px;fill:#000000;fill-opacity:1;stroke:none;stroke-width:1px;stroke-linecap:butt;stroke-linejoin:miter;stroke-opacity:1"
         id="path3355"
         inkscape:connector-curvature="0"
         sodipodi:nodetypes="csccccssscsccsssccs" />
      <path
         sodipodi:nodetypes="csccssccccccssccscc"
         d="m 1619.6522,1238.8736 c -104.0127,53.3873 -184.7863,68.8609 -233.72,68.8609 -20.7967,0 -44.0402,-15.9034 12.2335,-156.5876 l 59.9436,-145.5775 c 25.6902,-63.61367 36.7002,-105.20724 36.7002,-138.23743 0,-64.83704 -40.3702,-106.43061 -117.4406,-106.43061 -103.984,0 -194.5112,74.62376 -200.6279,80.74046 l 25.6902,-64.83704 -194.5111,0 -256.90152,634.91362 194.51113,0 165.15099,-407.3723 c 51.3803,-58.72035 107.6539,-86.85717 137.0141,-86.85717 18.3501,0 33.0302,9.78672 33.0302,26.91348 0,18.35011 -19.5735,64.83709 -42.8169,123.55739 l -18.3501,45.2636 c -86.8572,216.5312 -34.2536,314.3985 92.9738,314.3985 146.8009,0 265.4471,-75.6844 339.9641,-114.6213 -9.7867,-23.2435 -8.8541,-63.1747 -32.8437,-74.127 z"
         style="font-style:normal;font-variant:normal;font-weight:bold;font-stretch:normal;font-size:90px;font-family:'Thirsty Script Extrabold Demo';-inkscape-font-specification:'Thirsty Script Extrabold Demo Bold';letter-spacing:0px;word-spacing:0px;fill:#000000;fill-opacity:1;stroke:none;stroke-width:1px;stroke-linecap:butt;stroke-linejoin:miter;stroke-opacity:1"
         id="path3359"
         inkscape:connector-curvature="0" />
      <path
         d="m 2238.6538,1307.7345 c -37.1728,32.2416 -53.827,-17.1268 3.67,-156.5876 l 150.4709,-374.34212 96.6439,0 40.3702,-97.86723 -97.8672,0 58.7203,-144.35417 -194.5111,0 -58.7204,144.35417 -100.3139,0 -40.3702,97.86723 101.5372,0 -138.2374,341.31192 c -88.0805,218.978 -12.2334,309.5052 108.8773,309.5052 254.6417,-3.6207 308.4949,-572.83174 664.7971,-83.1147 -287.0235,-390.12043 -349.4993,-259.0409 -595.0667,-36.7727 z"
         style="font-style:normal;font-variant:normal;font-weight:bold;font-stretch:normal;font-size:90px;font-family:'Thirsty Script Extrabold Demo';-inkscape-font-specification:'Thirsty Script Extrabold Demo Bold';letter-spacing:0px;word-spacing:0px;fill:#000000;fill-opacity:1;stroke:none;stroke-width:1px;stroke-linecap:butt;stroke-linejoin:miter;stroke-opacity:1"
         id="path3361"
         inkscape:connector-curvature="0"
         sodipodi:nodetypes="cccccccccccccccc" />
      <g
         transform="matrix(0.95495144,0,0,1.132139,101.23627,-154.95629)"
         id="text3350"
         style="font-style:normal;font-variant:normal;font-weight:bold;font-stretch:normal;font-size:1052.36206055px;line-height:125%;font-family:'Thirsty Script Extrabold Demo';-inkscape-font-specification:'Thirsty Script Extrabold Demo Bold';letter-spacing:0px;word-spacing:0px;fill:#000000;fill-opacity:1;stroke:none;stroke-width:1px;stroke-linecap:butt;stroke-linejoin:miter;stroke-opacity:1">
        <path
           inkscape:connector-curvature="0"
           id="path3356"
           d="m 2072.3151,1090.5803 c -74.7177,132.5976 -188.3728,203.1059 -295.7138,203.1059 -133.65,0 -103.1315,-109.4457 -103.1315,-109.4457 194.687,25.2567 278.876,-35.7803 323.0752,-131.5452 67.3512,-151.54014 -33.6756,-229.41494 -152.5925,-229.41494 -225.2055,0 -331.494,247.30504 -331.494,387.26924 0,114.7074 70.5082,186.268 216.7865,186.268 202.0536,0 330.4417,-137.8593 402.0023,-264.1428 -8.4189,-19.9949 -36.8326,-39.9898 -58.9322,-42.0945 z M 1835.5336,956.93034 c 35.7803,0 29.4661,28.41378 15.7854,59.98466 -21.0472,49.461 -52.6181,93.6602 -149.4354,76.8224 0,0 55.7752,-136.80706 133.65,-136.80706 z" />
      </g>
    </g>
  </g>
</svg>
